<?xml version="1.0" encoding="UTF-8"?>
<svg version="1.1" xmlns="http://www.w3.org/2000/svg" width="20" height="20">
<path d="M0 0 C2.78116293 0.00517058 5.56223934 -0.00222959 8.34339333 -0.00947207 C14.90367092 -0.02635286 21.46371514 -0.02301862 28.02398682 -0.00618243 C34.76813763 0.01080233 41.51164413 -0.00520864 48.25572491 -0.03740531 C54.0795272 -0.06414393 59.90312941 -0.071368 65.72698689 -0.06289023 C69.19129616 -0.05798256 72.6552165 -0.06006097 76.11947632 -0.08067775 C79.97445829 -0.10253365 83.82866583 -0.083588 87.68365479 -0.06086993 C88.81729965 -0.07256213 89.95094452 -0.08425433 91.11894226 -0.09630084 C98.90741909 -0.00301389 103.84622064 1.62595892 109.51397705 7.01283669 C113.88033193 11.82226597 115.5154426 16.88974884 115.30474854 23.35929608 C114.30857276 30.49645419 111.49300397 35.93005697 105.87506104 40.41398358 C101.98641513 42.80699645 98.55683037 43.8199897 94.00262451 43.82178998 C92.53118988 43.82986424 92.53118988 43.82986424 91.0300293 43.83810163 C89.96504211 43.83397763 88.90005493 43.82985364 87.80279541 43.82560468 C86.67202576 43.82922513 85.5412561 43.83284558 84.3762207 43.83657575 C81.92140001 43.84346641 79.466564 43.8459758 77.01173401 43.84462857 C73.11788617 43.84366252 69.22431379 43.8566175 65.33050537 43.87360883 C54.25944751 43.92051424 43.18840139 43.94454648 32.11724854 43.95109296 C25.34215031 43.95526813 18.56734478 43.98047389 11.79234314 44.01641965 C9.21855896 44.02617996 6.64473529 44.02857034 4.07093811 44.02324796 C-14.32988372 43.98699867 -29.5970665 43.98328606 -43.77728271 57.22648358 C-52.60319338 66.7244179 -55.32197407 78.39594543 -55.26454163 90.99975324 C-55.26836717 91.90552489 -55.27219272 92.81129655 -55.27613419 93.74451584 C-55.28639015 96.75655046 -55.28248618 99.7683918 -55.27850342 102.78043866 C-55.28285402 104.94946205 -55.28803833 107.1184839 -55.29399109 109.28750348 C-55.30735557 115.1636393 -55.30796254 121.0397107 -55.30542779 126.91585875 C-55.30435624 131.82867842 -55.30924621 136.74148516 -55.31403321 141.65430206 C-55.32511981 153.24909186 -55.32557071 164.84384926 -55.31951904 176.43864179 C-55.3134807 188.38275566 -55.32578876 200.3267517 -55.34708911 212.27084547 C-55.36472824 222.5412008 -55.37070278 232.8115187 -55.36745137 243.08188862 C-55.36564189 249.20898015 -55.36824113 255.33598763 -55.38216591 261.46306539 C-55.39477702 267.22759265 -55.39276902 272.9919368 -55.37975502 278.75646138 C-55.37739676 280.86549179 -55.38009685 282.97453522 -55.38837814 285.08355069 C-55.44856205 301.60941458 -54.82662045 315.78963586 -43.12103271 328.63663983 C-32.51194038 338.57997941 -20.43296983 340.88088998 -6.36883545 340.82560468 C-5.2392038 340.82922513 -4.10957214 340.83284558 -2.94570923 340.83657575 C-0.50677227 340.8434394 1.93217994 340.8459809 4.37112617 340.84462857 C8.23451674 340.8436593 12.09763219 340.8566521 15.96098328 340.87360883 C26.94037868 340.91976854 37.91974194 340.94457735 48.89923096 340.95109296 C55.62705554 340.95525373 62.35454909 340.98036085 69.08228874 341.01641965 C71.64066768 341.02620878 74.19908655 341.02855448 76.75747871 341.02324796 C80.33548116 341.01617181 83.91261881 341.03347082 87.49053955 341.05607343 C89.06724174 341.04381474 89.06724174 341.04381474 90.67579651 341.03130841 C98.63123661 341.12056389 104.06339776 342.70264894 109.80865479 348.32023358 C113.80536677 354.25820568 116.20401351 360.28190423 114.99615479 367.57023358 C112.85546437 375.04990782 108.84487409 379.69965936 102.20949936 383.62798238 C99.58411092 384.74564632 97.65163027 384.82718506 94.8013916 384.83765912 C93.22493111 384.85045407 93.22493111 384.85045407 91.61662292 384.86350751 C90.46859695 384.86260114 89.32057098 384.86169477 88.13775635 384.86076093 C86.31737602 384.87083676 86.31737602 384.87083676 84.46022034 384.88111615 C81.13090019 384.89686848 77.8018296 384.90347226 74.47248936 384.90474772 C72.38583122 384.90617173 70.29919899 384.91044647 68.2125473 384.91574216 C60.91269788 384.93425737 53.61292144 384.94241255 46.31304932 384.94083905 C39.54441822 384.93964328 32.77610893 384.96062989 26.00755906 384.99232638 C20.17371593 385.01865631 14.33997661 385.02919913 8.50607467 385.02792823 C5.03242047 385.02742266 1.55905107 385.03287537 -1.91454315 385.05428433 C-35.75020971 385.24841334 -35.75020971 385.24841334 -51.31634521 376.82023358 C-51.97529785 376.47516767 -52.63425049 376.13010175 -53.31317139 375.77457929 C-74.78543315 364.24681413 -89.38472191 346.26756969 -96.77177525 323.16899323 C-99.81965224 311.99981098 -99.43328334 300.80988616 -99.40789795 289.31705976 C-99.4136082 286.97659727 -99.42057498 284.63613756 -99.42869568 282.29568219 C-99.44657087 275.96909272 -99.44546915 269.64264237 -99.43975329 263.31603527 C-99.43625968 257.34901304 -99.44423778 251.38200766 -99.45111395 245.4149907 C-99.46480726 232.87309489 -99.45942394 220.33126164 -99.44792873 207.7893673 C-99.43800233 196.34872218 -99.45093237 184.90823894 -99.47486293 173.46761879 C-99.49932408 161.68334388 -99.50884447 149.89914414 -99.5022102 138.11484438 C-99.49873316 131.51371723 -99.50118973 124.91269842 -99.51846123 118.31158757 C-99.53400444 112.10044832 -99.52989309 105.88961641 -99.51115608 99.67848897 C-99.50749042 97.40988081 -99.510519 95.1412495 -99.52104187 92.87266278 C-99.58817794 77.19175487 -98.87378401 62.30249459 -91.19134521 48.19523358 C-90.84225098 47.53225263 -90.49315674 46.86927167 -90.13348389 46.18620038 C-81.62875597 30.34148471 -69.94580351 17.99240023 -54.00384521 9.57023358 C-53.11310303 9.09070233 -52.22236084 8.61117108 -51.30462646 8.11710858 C-34.75883962 -0.09395454 -18.08337284 -0.04894569 0 0 Z " fill="#ffffff" transform="translate(163.00384521484375,63.42976641654968)"/>
<path d="M0 0 C2.53423904 1.88504276 4.69133974 4.05570934 6.88745117 6.31982422 C7.52432358 6.95596649 8.16119598 7.59210876 8.81736755 8.24752808 C10.90465191 10.33827518 12.97368773 12.44613335 15.04296875 14.5546875 C16.49819397 16.01925081 17.95453648 17.48270472 19.41194153 18.94509888 C23.23679627 22.78898936 27.04640766 26.64764522 30.85296631 30.50964355 C34.72300549 34.43077871 38.60716931 38.33786515 42.49023438 42.24609375 C48.76249453 48.56223264 55.02608276 54.88681694 61.27832031 61.22277832 C61.82896652 61.78065033 62.37961273 62.33852234 62.94694519 62.91329956 C63.72149583 63.69907694 63.72149583 63.69907694 64.51169395 64.50072861 C65.94124802 65.94081515 67.387637 67.36413039 68.83467102 68.78665161 C72.70268492 72.74044451 73.79530973 77.08955745 74.375 82.5 C72.81141252 97.09348314 59.55911663 106.62948408 49.78125 116.45703125 C49.10135513 117.14100164 48.42146027 117.82497204 47.72096252 118.52966881 C44.13023594 122.14113293 40.53633051 125.74939976 36.93994141 129.35522461 C33.23618089 133.07009957 29.54425767 136.79651605 25.85477448 140.52556324 C23.00291674 143.40357238 20.14220236 146.2726536 17.27903748 149.13941002 C15.91377047 150.5095368 14.55187332 151.8830304 13.1934967 153.25998878 C11.29392211 155.18395044 9.38206349 157.09484999 7.46679688 159.00317383 C6.91386459 159.56891617 6.36093231 160.13465851 5.79124451 160.71754456 C0.47422857 165.96484654 -4.80732823 168.42528596 -12.4375 168.5 C-19.50956195 168.32137157 -23.54349967 166.38559776 -28.5234375 161.5078125 C-33.33898009 156.13555979 -34.42938924 151.51484052 -34.2421875 144.484375 C-33.09117718 132.67723691 -20.94492197 123.81145741 -13.0625 116 C-12.0824469 115.02497614 -11.1026276 114.0497172 -10.12304688 113.07421875 C-7.75097687 110.71383382 -5.3765914 108.35583095 -3 106 C-4.39452471 105.99641747 -4.39452471 105.99641747 -5.81722164 105.99276257 C-28.45263892 105.93393256 -51.08795005 105.85802803 -73.72325039 105.76428509 C-84.66957574 105.71934553 -95.6158687 105.67992657 -106.56225586 105.65356445 C-116.10463386 105.63056953 -125.64690917 105.59715469 -135.18920571 105.55129844 C-140.24040975 105.52738648 -145.29151221 105.50864438 -150.34277153 105.50238609 C-155.10095579 105.49632612 -159.8588802 105.47629316 -164.61696815 105.44572449 C-166.35956898 105.43695891 -168.10220378 105.43321861 -169.84482574 105.43499184 C-181.42765844 105.44305396 -191.4435193 105.38497971 -200.3359375 96.953125 C-204.27322965 92.33189008 -205.55571935 87.00725514 -205.28515625 81.0078125 C-204.37192749 74.57768124 -201.7064241 69.50179697 -197 65 C-189.01812263 59.44835681 -179.26357922 60.42471061 -169.99584961 60.45410156 C-168.17187624 60.44535804 -166.34791053 60.43486954 -164.5239563 60.42277527 C-159.59276691 60.39499014 -154.66182875 60.39150893 -149.73057246 60.39249516 C-144.56955683 60.38935962 -139.40865327 60.36372805 -134.24769592 60.34051514 C-124.48381492 60.30000071 -114.72000064 60.27962512 -104.95604855 60.26654124 C-93.83628185 60.25065577 -82.71662842 60.21223359 -71.59692752 60.17194796 C-48.73132306 60.08961137 -25.86572179 60.03548025 -3 60 C-3.76143311 59.26475098 -4.52286621 58.52950195 -5.30737305 57.77197266 C-8.16254155 55.00815609 -11.00043117 52.22712454 -13.83374023 49.44091797 C-15.05607083 48.24353946 -16.28287551 47.05070889 -17.5144043 45.86279297 C-33.7905535 30.14834603 -33.7905535 30.14834603 -34.5625 18.9375 C-34.18638881 12.47245356 -32.08246711 6.52128414 -27.1875 2.125 C-17.99791959 -4.00138694 -9.9829685 -4.90715502 0 0 Z " fill="#ffffff" transform="translate(375,173)"/>
</svg>
