<svg width="193" height="193" viewBox="0 0 193 193" fill="none" xmlns="http://www.w3.org/2000/svg">
<rect width="193" height="193" rx="12" fill="#EFEBFF"/>
<path d="M110.75 67.25H83.25C82.587 67.25 81.9511 67.5134 81.4822 67.9822C81.0134 68.4511 80.75 69.087 80.75 69.75V92.25C80.75 92.913 81.0134 93.5489 81.4822 94.0178C81.9511 94.4866 82.587 94.75 83.25 94.75H110.75C111.413 94.75 112.049 94.4866 112.518 94.0178C112.987 93.5489 113.25 92.913 113.25 92.25V69.75C113.25 69.087 112.987 68.4511 112.518 67.9822C112.049 67.5134 111.413 67.25 110.75 67.25ZM110.75 69.75V85.8047L106.677 81.7328C106.444 81.5006 106.169 81.3164 105.865 81.1907C105.562 81.0651 105.237 81.0004 104.909 81.0004C104.58 81.0004 104.255 81.0651 103.952 81.1907C103.648 81.3164 103.373 81.5006 103.141 81.7328L100.016 84.8578L93.1406 77.9828C92.6718 77.5143 92.0362 77.2512 91.3734 77.2512C90.7107 77.2512 90.075 77.5143 89.6062 77.9828L83.25 84.3391V69.75H110.75ZM83.25 87.875L91.375 79.75L103.875 92.25H83.25V87.875ZM110.75 92.25H107.411L101.786 86.625L104.911 83.5L110.75 89.3406V92.25ZM99.5 76.625C99.5 76.2542 99.61 75.8916 99.816 75.5833C100.022 75.275 100.315 75.0346 100.657 74.8927C101 74.7508 101.377 74.7137 101.741 74.786C102.105 74.8584 102.439 75.037 102.701 75.2992C102.963 75.5614 103.142 75.8955 103.214 76.2592C103.286 76.6229 103.249 76.9999 103.107 77.3425C102.965 77.6851 102.725 77.978 102.417 78.184C102.108 78.39 101.746 78.5 101.375 78.5C100.878 78.5 100.401 78.3025 100.049 77.9508C99.6975 77.5992 99.5 77.1223 99.5 76.625Z" fill="#633CFF"/>
<path d="M42.584 124.76V117.352H44.152V124.76H42.584ZM39.848 121.816V120.312H46.856V121.816H39.848ZM56.4129 127.16C54.8555 127.16 53.6769 126.717 52.8769 125.832C52.0769 124.947 51.6769 123.677 51.6769 122.024V115.48H53.7569V122.328C53.7569 123.384 53.9915 124.173 54.4609 124.696C54.9302 125.208 55.5862 125.464 56.4289 125.464C57.2715 125.464 57.9275 125.208 58.3969 124.696C58.8662 124.173 59.1009 123.389 59.1009 122.344V115.48H61.1809V122.04C61.1809 123.683 60.7755 124.947 59.9649 125.832C59.1649 126.717 57.9809 127.16 56.4129 127.16ZM67.7905 127.16C67.0118 127.16 66.3772 126.979 65.8865 126.616C65.4065 126.243 65.1078 125.731 64.9905 125.08L65.1505 125.064V130.28H63.1345V118.84H65.1025V120.68L64.9425 120.648C65.0918 120.04 65.4332 119.56 65.9665 119.208C66.4998 118.856 67.1505 118.68 67.9185 118.68C68.6438 118.68 69.2732 118.856 69.8065 119.208C70.3505 119.549 70.7718 120.035 71.0705 120.664C71.3692 121.293 71.5185 122.035 71.5185 122.888C71.5185 123.752 71.3638 124.504 71.0545 125.144C70.7452 125.784 70.3132 126.28 69.7585 126.632C69.2038 126.984 68.5478 127.16 67.7905 127.16ZM67.2785 125.496C67.9292 125.496 68.4465 125.272 68.8305 124.824C69.2145 124.365 69.4065 123.725 69.4065 122.904C69.4065 122.083 69.2092 121.448 68.8145 121C68.4305 120.552 67.9132 120.328 67.2625 120.328C66.6225 120.328 66.1052 120.557 65.7105 121.016C65.3158 121.464 65.1185 122.099 65.1185 122.92C65.1185 123.741 65.3158 124.376 65.7105 124.824C66.1052 125.272 66.6278 125.496 67.2785 125.496ZM73.072 127V115.48H75.088V127H73.072ZM80.9403 127.16C80.0763 127.16 79.3136 126.979 78.6523 126.616C78.0016 126.253 77.4949 125.752 77.1323 125.112C76.7696 124.461 76.5883 123.72 76.5883 122.888C76.5883 122.056 76.7696 121.325 77.1323 120.696C77.4949 120.067 78.0016 119.576 78.6523 119.224C79.3136 118.861 80.0763 118.68 80.9403 118.68C81.8149 118.68 82.5776 118.861 83.2283 119.224C83.8789 119.576 84.3856 120.067 84.7483 120.696C85.1109 121.325 85.2923 122.056 85.2923 122.888C85.2923 123.72 85.1056 124.461 84.7323 125.112C84.3696 125.752 83.8629 126.253 83.2123 126.616C82.5616 126.979 81.8043 127.16 80.9403 127.16ZM80.9403 125.544C81.3669 125.544 81.7509 125.437 82.0923 125.224C82.4336 125 82.7003 124.691 82.8923 124.296C83.0843 123.891 83.1803 123.416 83.1803 122.872C83.1803 122.072 82.9669 121.443 82.5403 120.984C82.1243 120.525 81.5909 120.296 80.9403 120.296C80.2896 120.296 79.7509 120.525 79.3243 120.984C78.8976 121.443 78.6843 122.072 78.6843 122.872C78.6843 123.416 78.7803 123.891 78.9723 124.296C79.1749 124.691 79.4416 125 79.7723 125.224C80.1136 125.437 80.5029 125.544 80.9403 125.544ZM91.8319 127C91.7785 126.787 91.7359 126.552 91.7039 126.296C91.6825 126.04 91.6719 125.731 91.6719 125.368H91.6079V121.496C91.6079 121.069 91.4852 120.749 91.2399 120.536C91.0052 120.312 90.6425 120.2 90.1519 120.2C89.6719 120.2 89.2879 120.291 88.9999 120.472C88.7225 120.643 88.5519 120.893 88.4879 121.224H86.5519C86.6372 120.467 86.9999 119.853 87.6399 119.384C88.2799 118.915 89.1385 118.68 90.2159 118.68C91.3359 118.68 92.1839 118.936 92.7599 119.448C93.3359 119.949 93.6239 120.691 93.6239 121.672V125.368C93.6239 125.624 93.6399 125.885 93.6719 126.152C93.7145 126.419 93.7732 126.701 93.8479 127H91.8319ZM88.9999 127.16C88.1785 127.16 87.5225 126.957 87.0319 126.552C86.5519 126.136 86.3119 125.581 86.3119 124.888C86.3119 124.141 86.5839 123.549 87.1279 123.112C87.6719 122.675 88.4399 122.381 89.4319 122.232L91.9759 121.848V123.128L89.7679 123.464C89.2879 123.539 88.9252 123.672 88.6799 123.864C88.4452 124.056 88.3279 124.323 88.3279 124.664C88.3279 124.973 88.4399 125.213 88.6639 125.384C88.8879 125.544 89.1972 125.624 89.5919 125.624C90.1679 125.624 90.6479 125.48 91.0319 125.192C91.4159 124.904 91.6079 124.552 91.6079 124.136L91.8319 125.368C91.6185 125.955 91.2665 126.403 90.7759 126.712C90.2959 127.011 89.7039 127.16 88.9999 127.16ZM101.365 127V125.16L101.525 125.192C101.386 125.789 101.05 126.269 100.517 126.632C99.9834 126.984 99.3488 127.16 98.6128 127.16C97.8661 127.16 97.2154 126.989 96.6608 126.648C96.1168 126.296 95.6954 125.805 95.3968 125.176C95.0981 124.547 94.9488 123.805 94.9488 122.952C94.9488 122.088 95.1034 121.336 95.4128 120.696C95.7221 120.056 96.1541 119.56 96.7088 119.208C97.2741 118.856 97.9301 118.68 98.6768 118.68C99.4448 118.68 100.079 118.867 100.581 119.24C101.082 119.603 101.391 120.109 101.509 120.76L101.301 120.776V115.48H103.333V127H101.365ZM99.2048 125.512C99.8554 125.512 100.373 125.288 100.757 124.84C101.151 124.381 101.349 123.741 101.349 122.92C101.349 122.099 101.151 121.464 100.757 121.016C100.362 120.568 99.8394 120.344 99.1888 120.344C98.5488 120.344 98.0314 120.573 97.6368 121.032C97.2421 121.48 97.0448 122.115 97.0448 122.936C97.0448 123.757 97.2421 124.392 97.6368 124.84C98.0314 125.288 98.5541 125.512 99.2048 125.512ZM108.492 127V115.48H110.572V127H108.492ZM112.635 127V118.84H114.603V120.76H114.651V127H112.635ZM118.123 127V121.736C118.123 121.256 118 120.904 117.755 120.68C117.52 120.445 117.184 120.328 116.747 120.328C116.363 120.328 116.011 120.419 115.691 120.6C115.371 120.781 115.115 121.037 114.923 121.368C114.741 121.699 114.651 122.083 114.651 122.52L114.443 120.648C114.72 120.051 115.12 119.576 115.643 119.224C116.165 118.861 116.773 118.68 117.467 118.68C118.299 118.68 118.955 118.92 119.435 119.4C119.915 119.869 120.155 120.477 120.155 121.224V127H118.123ZM123.611 127V121.736C123.611 121.256 123.493 120.904 123.259 120.68C123.024 120.445 122.688 120.328 122.251 120.328C121.856 120.328 121.499 120.419 121.179 120.6C120.859 120.781 120.608 121.037 120.427 121.368C120.245 121.699 120.155 122.083 120.155 122.52L119.803 120.648C120.069 120.051 120.475 119.576 121.019 119.224C121.563 118.861 122.192 118.68 122.907 118.68C123.76 118.68 124.427 118.925 124.907 119.416C125.397 119.896 125.643 120.536 125.643 121.336V127H123.611ZM132.629 127C132.575 126.787 132.533 126.552 132.501 126.296C132.479 126.04 132.469 125.731 132.469 125.368H132.405V121.496C132.405 121.069 132.282 120.749 132.037 120.536C131.802 120.312 131.439 120.2 130.949 120.2C130.469 120.2 130.085 120.291 129.797 120.472C129.519 120.643 129.349 120.893 129.285 121.224H127.349C127.434 120.467 127.797 119.853 128.437 119.384C129.077 118.915 129.935 118.68 131.013 118.68C132.133 118.68 132.981 118.936 133.557 119.448C134.133 119.949 134.421 120.691 134.421 121.672V125.368C134.421 125.624 134.437 125.885 134.469 126.152C134.511 126.419 134.57 126.701 134.645 127H132.629ZM129.797 127.16C128.975 127.16 128.319 126.957 127.829 126.552C127.349 126.136 127.109 125.581 127.109 124.888C127.109 124.141 127.381 123.549 127.925 123.112C128.469 122.675 129.237 122.381 130.229 122.232L132.773 121.848V123.128L130.565 123.464C130.085 123.539 129.722 123.672 129.477 123.864C129.242 124.056 129.125 124.323 129.125 124.664C129.125 124.973 129.237 125.213 129.461 125.384C129.685 125.544 129.994 125.624 130.389 125.624C130.965 125.624 131.445 125.48 131.829 125.192C132.213 124.904 132.405 124.552 132.405 124.136L132.629 125.368C132.415 125.955 132.063 126.403 131.573 126.712C131.093 127.011 130.501 127.16 129.797 127.16ZM139.922 130.44C138.844 130.44 137.959 130.205 137.266 129.736C136.583 129.267 136.178 128.632 136.05 127.832H137.97C138.066 128.109 138.274 128.323 138.594 128.472C138.924 128.632 139.351 128.712 139.874 128.712C140.631 128.712 141.191 128.541 141.554 128.2C141.916 127.869 142.098 127.363 142.098 126.68V124.92L142.242 124.952C142.114 125.549 141.788 126.029 141.266 126.392C140.743 126.744 140.103 126.92 139.346 126.92C138.62 126.92 137.986 126.749 137.442 126.408C136.908 126.067 136.492 125.592 136.194 124.984C135.895 124.365 135.746 123.645 135.746 122.824C135.746 121.992 135.9 121.267 136.21 120.648C136.519 120.029 136.951 119.549 137.506 119.208C138.071 118.856 138.727 118.68 139.474 118.68C140.242 118.68 140.871 118.867 141.362 119.24C141.863 119.603 142.172 120.109 142.29 120.76L142.162 120.776V118.84H144.13V126.664C144.13 127.827 143.751 128.744 142.994 129.416C142.247 130.099 141.223 130.44 139.922 130.44ZM140.002 125.32C140.652 125.32 141.17 125.101 141.554 124.664C141.948 124.216 142.146 123.592 142.146 122.792C142.146 121.992 141.948 121.373 141.554 120.936C141.159 120.499 140.636 120.28 139.986 120.28C139.346 120.28 138.828 120.504 138.434 120.952C138.039 121.389 137.842 122.008 137.842 122.808C137.842 123.608 138.039 124.227 138.434 124.664C138.828 125.101 139.351 125.32 140.002 125.32ZM149.939 127.16C149.075 127.16 148.318 126.979 147.667 126.616C147.027 126.253 146.526 125.752 146.163 125.112C145.811 124.472 145.635 123.736 145.635 122.904C145.635 122.072 145.811 121.341 146.163 120.712C146.526 120.072 147.027 119.576 147.667 119.224C148.307 118.861 149.054 118.68 149.907 118.68C150.718 118.68 151.422 118.851 152.019 119.192C152.616 119.523 153.08 119.992 153.411 120.6C153.742 121.208 153.907 121.917 153.907 122.728C153.907 122.877 153.902 123.016 153.891 123.144C153.88 123.272 153.864 123.4 153.843 123.528H146.883V122.12H152.291L151.875 122.504C151.875 121.736 151.699 121.16 151.347 120.776C150.995 120.392 150.504 120.2 149.875 120.2C149.192 120.2 148.648 120.435 148.243 120.904C147.848 121.373 147.651 122.051 147.651 122.936C147.651 123.811 147.848 124.483 148.243 124.952C148.648 125.411 149.219 125.64 149.955 125.64C150.382 125.64 150.755 125.56 151.075 125.4C151.395 125.24 151.63 124.995 151.779 124.664H153.683C153.416 125.432 152.963 126.04 152.323 126.488C151.694 126.936 150.899 127.16 149.939 127.16Z" fill="#633CFF"/>
</svg>
